<svg width="111" height="21" viewBox="0 0 111 21" fill="none" xmlns="http://www.w3.org/2000/svg">
<g filter="url(#filter0_d_12_3)">
<path d="M6.976 1.804C6.408 2.02 5.968 2.356 5.656 2.812C5.344 3.26 5.188 3.812 5.188 4.468C5.188 4.764 5.216 4.972 5.272 5.092C5.328 5.204 5.356 5.268 5.356 5.284C4.924 5.284 4.6 5.196 4.384 5.02C4.176 4.836 4.072 4.536 4.072 4.12C4.072 3.608 4.28 3.112 4.696 2.632C5.12 2.144 5.66 1.752 6.316 1.456C6.972 1.152 7.628 0.999999 8.284 0.999999C8.396 0.999999 8.556 1.008 8.764 1.024L8.872 8.404L11.392 1.06H12.916L13.024 8.404L15.544 1.06H16.384L13.048 10H11.32L11.176 3.892L8.896 10H7.168L6.976 1.804ZM19.875 10.072C19.387 10.072 19.027 9.944 18.795 9.688C18.571 9.424 18.459 9.1 18.459 8.716C18.459 8.548 18.479 8.36 18.519 8.152C18.559 7.936 18.599 7.728 18.639 7.528C18.687 7.328 18.719 7.2 18.735 7.144C18.799 6.864 18.859 6.588 18.915 6.316C18.971 6.044 18.999 5.824 18.999 5.656C18.999 5.248 18.855 5.044 18.567 5.044C18.359 5.044 18.175 5.148 18.015 5.356C17.855 5.556 17.727 5.82 17.631 6.148L16.815 10H15.087L16.827 1.84L18.603 1.6L17.955 4.624C18.355 4.176 18.823 3.952 19.359 3.952C19.767 3.952 20.091 4.064 20.331 4.288C20.571 4.512 20.691 4.852 20.691 5.308C20.691 5.54 20.663 5.8 20.607 6.088C20.551 6.368 20.471 6.712 20.367 7.12C20.303 7.368 20.243 7.612 20.187 7.852C20.139 8.084 20.115 8.268 20.115 8.404C20.115 8.564 20.151 8.688 20.223 8.776C20.295 8.864 20.419 8.908 20.595 8.908C20.835 8.908 21.027 8.824 21.171 8.656C21.315 8.48 21.459 8.212 21.603 7.852H22.107C21.811 8.732 21.467 9.324 21.075 9.628C20.691 9.924 20.291 10.072 19.875 10.072ZM23.0416 10.072C22.5856 10.072 22.2056 9.916 21.9016 9.604C21.5976 9.292 21.4456 8.804 21.4456 8.14C21.4456 7.548 21.5616 6.928 21.7936 6.28C22.0336 5.624 22.3856 5.072 22.8496 4.624C23.3216 4.168 23.8816 3.94 24.5296 3.94C24.8576 3.94 25.1016 3.996 25.2616 4.108C25.4216 4.22 25.5016 4.368 25.5016 4.552V4.636L25.6336 4H27.3616L26.4976 8.08C26.4656 8.2 26.4496 8.328 26.4496 8.464C26.4496 8.808 26.6136 8.98 26.9416 8.98C27.1656 8.98 27.3576 8.876 27.5176 8.668C27.6856 8.46 27.8176 8.188 27.9136 7.852H28.4176C28.1216 8.716 27.7536 9.304 27.3136 9.616C26.8816 9.92 26.4456 10.072 26.0056 10.072C25.6696 10.072 25.3976 9.98 25.1896 9.796C24.9896 9.604 24.8696 9.328 24.8296 8.968C24.5976 9.296 24.3376 9.564 24.0496 9.772C23.7696 9.972 23.4336 10.072 23.0416 10.072ZM23.8216 8.908C24.0216 8.908 24.2176 8.816 24.4096 8.632C24.6096 8.44 24.7456 8.18 24.8176 7.852L25.3936 5.14C25.3936 5.036 25.3536 4.936 25.2736 4.84C25.1936 4.736 25.0696 4.684 24.9016 4.684C24.5816 4.684 24.2936 4.872 24.0376 5.248C23.7816 5.616 23.5816 6.064 23.4376 6.592C23.2936 7.112 23.2216 7.572 23.2216 7.972C23.2216 8.372 23.2776 8.628 23.3896 8.74C23.5096 8.852 23.6536 8.908 23.8216 8.908ZM29.046 10.072C28.638 10.072 28.334 9.948 28.134 9.7C27.942 9.452 27.846 9.124 27.846 8.716C27.846 8.508 27.87 8.296 27.918 8.08L28.686 4.48H28.29L28.386 4H28.782L29.142 2.344L30.918 2.104C30.846 2.408 30.806 2.588 30.798 2.644C30.742 2.868 30.646 3.32 30.51 4H31.23L31.134 4.48H30.414L29.646 8.08C29.606 8.256 29.586 8.396 29.586 8.5C29.586 8.788 29.726 8.932 30.006 8.932C30.15 8.932 30.254 8.92 30.318 8.896C30.158 9.36 29.97 9.672 29.754 9.832C29.538 9.992 29.302 10.072 29.046 10.072ZM35.2759 10.072C34.8199 10.072 34.4399 9.916 34.1359 9.604C33.8319 9.292 33.6799 8.804 33.6799 8.14C33.6799 7.548 33.7959 6.928 34.0279 6.28C34.2679 5.624 34.6199 5.072 35.0839 4.624C35.5559 4.168 36.1159 3.94 36.7639 3.94C37.0919 3.94 37.3359 3.996 37.4959 4.108C37.6559 4.22 37.7359 4.368 37.7359 4.552V4.6L38.3239 1.84L40.0999 1.6L38.7199 8.08C38.6879 8.2 38.6719 8.328 38.6719 8.464C38.6719 8.624 38.7079 8.74 38.7799 8.812C38.8599 8.876 38.9879 8.908 39.1639 8.908C39.3879 8.908 39.5799 8.812 39.7399 8.62C39.9079 8.428 40.0399 8.172 40.1359 7.852H40.6399C40.1519 9.284 39.3479 10 38.2279 10C37.8999 10 37.6319 9.912 37.4239 9.736C37.2239 9.56 37.0999 9.304 37.0519 8.968C36.8439 9.288 36.5919 9.552 36.2959 9.76C36.0079 9.968 35.6679 10.072 35.2759 10.072ZM36.0559 8.908C36.2479 8.908 36.4399 8.82 36.6319 8.644C36.8319 8.468 36.9679 8.224 37.0399 7.912V7.852L37.6279 5.104C37.5559 4.824 37.3919 4.684 37.1359 4.684C36.8159 4.684 36.5279 4.872 36.2719 5.248C36.0159 5.616 35.8159 6.064 35.6719 6.592C35.5279 7.112 35.4559 7.572 35.4559 7.972C35.4559 8.372 35.5119 8.628 35.6239 8.74C35.7439 8.852 35.8879 8.908 36.0559 8.908ZM41.8926 10.048C41.3006 10.048 40.8326 9.896 40.4886 9.592C40.1446 9.288 39.9726 8.808 39.9726 8.152C39.9726 7.608 40.0846 7.004 40.3086 6.34C40.5326 5.676 40.8926 5.104 41.3886 4.624C41.8846 4.136 42.5086 3.892 43.2606 3.892C44.2846 3.892 44.7966 4.532 44.7966 5.812V5.824C44.8206 5.832 44.8646 5.836 44.9286 5.836C45.1926 5.836 45.4966 5.768 45.8406 5.632C46.1846 5.488 46.4966 5.316 46.7766 5.116L46.8846 5.44C46.6526 5.688 46.3486 5.9 45.9726 6.076C45.6046 6.244 45.2006 6.364 44.7606 6.436C44.6966 7.164 44.5326 7.8 44.2686 8.344C44.0046 8.888 43.6646 9.308 43.2486 9.604C42.8326 9.9 42.3806 10.048 41.8926 10.048ZM42.3726 8.968C42.5646 8.968 42.7566 8.86 42.9486 8.644C43.1406 8.42 43.3086 8.12 43.4526 7.744C43.5966 7.36 43.7006 6.936 43.7646 6.472C43.5486 6.424 43.4406 6.256 43.4406 5.968C43.4406 5.64 43.5646 5.424 43.8126 5.32C43.7966 5.056 43.7566 4.876 43.6926 4.78C43.6286 4.676 43.5166 4.624 43.3566 4.624C43.0926 4.624 42.8366 4.816 42.5886 5.2C42.3406 5.584 42.1406 6.044 41.9886 6.58C41.8366 7.116 41.7606 7.588 41.7606 7.996C41.7606 8.38 41.8046 8.64 41.8926 8.776C41.9806 8.904 42.1406 8.968 42.3726 8.968ZM47.1301 10.072C46.5381 10.072 46.0781 9.92 45.7501 9.616C45.4221 9.304 45.2581 8.82 45.2581 8.164C45.2581 7.612 45.3661 7.004 45.5821 6.34C45.7981 5.676 46.1501 5.104 46.6381 4.624C47.1261 4.136 47.7461 3.892 48.4981 3.892C49.3781 3.892 49.8181 4.276 49.8181 5.044C49.8181 5.492 49.6901 5.904 49.4341 6.28C49.1781 6.656 48.8381 6.96 48.4141 7.192C47.9901 7.416 47.5381 7.544 47.0581 7.576C47.0421 7.816 47.0341 7.976 47.0341 8.056C47.0341 8.448 47.1021 8.716 47.2381 8.86C47.3741 8.996 47.5941 9.064 47.8981 9.064C48.3301 9.064 48.6981 8.964 49.0021 8.764C49.3141 8.564 49.6541 8.26 50.0221 7.852H50.4301C49.5421 9.332 48.4421 10.072 47.1301 10.072ZM47.1541 7C47.4501 6.984 47.7301 6.88 47.9941 6.688C48.2661 6.496 48.4821 6.252 48.6421 5.956C48.8101 5.66 48.8941 5.348 48.8941 5.02C48.8941 4.692 48.7941 4.528 48.5941 4.528C48.3061 4.528 48.0221 4.78 47.7421 5.284C47.4701 5.788 47.2741 6.36 47.1541 7ZM51.3875 10.072C51.0035 10.072 50.6795 10 50.4155 9.856C50.1515 9.704 49.9555 9.512 49.8275 9.28C49.6995 9.04 49.6355 8.792 49.6355 8.536C49.6355 8.272 49.6995 8.044 49.8275 7.852C49.9475 7.652 50.0955 7.508 50.2715 7.42C50.5835 6.86 50.8555 6.296 51.0875 5.728C51.3195 5.152 51.5395 4.532 51.7475 3.868L53.5235 3.628C53.5635 4.652 53.6315 5.76 53.7275 6.952C53.7675 7.432 53.7875 7.78 53.7875 7.996C53.7875 8.484 53.6635 8.884 53.4155 9.196C53.1675 9.508 52.8595 9.732 52.4915 9.868C52.1315 10.004 51.7635 10.072 51.3875 10.072ZM51.0035 9.124C51.2995 9.124 51.5475 9.036 51.7475 8.86C51.9475 8.684 52.0475 8.4 52.0475 8.008C52.0475 7.768 52.0235 7.432 51.9755 7C51.8955 6.088 51.8435 5.476 51.8195 5.164C51.6275 5.796 51.3035 6.552 50.8475 7.432C51.0315 7.528 51.1235 7.668 51.1235 7.852C51.1235 8.004 51.0715 8.14 50.9675 8.26C50.8715 8.38 50.7475 8.44 50.5955 8.44C50.4275 8.44 50.3195 8.388 50.2715 8.284C50.2715 8.572 50.3275 8.784 50.4395 8.92C50.5595 9.056 50.7475 9.124 51.0035 9.124ZM57.858 10.072C57.402 10.072 57.022 9.916 56.718 9.604C56.414 9.292 56.262 8.804 56.262 8.14C56.262 7.548 56.378 6.928 56.61 6.28C56.85 5.624 57.202 5.072 57.666 4.624C58.138 4.168 58.698 3.94 59.346 3.94C59.674 3.94 59.918 3.996 60.078 4.108C60.238 4.22 60.318 4.368 60.318 4.552V4.636L60.45 4H62.178L61.314 8.08C61.282 8.2 61.266 8.328 61.266 8.464C61.266 8.624 61.302 8.74 61.374 8.812C61.454 8.876 61.582 8.908 61.758 8.908C61.87 8.908 61.958 8.892 62.022 8.86C61.846 9.308 61.678 9.624 61.518 9.808C61.358 9.984 61.126 10.072 60.822 10.072C60.494 10.072 60.226 9.976 60.018 9.784C59.818 9.584 59.694 9.308 59.646 8.956C59.158 9.7 58.562 10.072 57.858 10.072ZM58.638 8.908C58.838 8.908 59.034 8.816 59.226 8.632C59.426 8.44 59.562 8.18 59.634 7.852L60.21 5.14C60.21 5.036 60.17 4.936 60.09 4.84C60.01 4.736 59.886 4.684 59.718 4.684C59.398 4.684 59.11 4.872 58.854 5.248C58.598 5.616 58.398 6.064 58.254 6.592C58.11 7.112 58.038 7.572 58.038 7.972C58.038 8.372 58.094 8.628 58.206 8.74C58.326 8.852 58.47 8.908 58.638 8.908ZM66.3371 10.072C65.7451 10.072 65.2851 9.92 64.9571 9.616C64.6291 9.304 64.4651 8.82 64.4651 8.164C64.4651 7.612 64.5731 7.004 64.7891 6.34C65.0131 5.676 65.3651 5.104 65.8451 4.624C66.3331 4.136 66.9491 3.892 67.6931 3.892C68.1731 3.892 68.5131 3.996 68.7131 4.204C68.9211 4.412 69.0251 4.676 69.0251 4.996C69.0251 5.276 68.9651 5.492 68.8451 5.644C68.7251 5.796 68.5731 5.872 68.3891 5.872C68.2531 5.872 68.1131 5.824 67.9691 5.728C68.0651 5.464 68.1131 5.228 68.1131 5.02C68.1131 4.868 68.0851 4.748 68.0291 4.66C67.9731 4.572 67.8891 4.528 67.7771 4.528C67.5371 4.528 67.2971 4.724 67.0571 5.116C66.8171 5.508 66.6211 5.984 66.4691 6.544C66.3171 7.104 66.2411 7.608 66.2411 8.056C66.2411 8.448 66.3091 8.716 66.4451 8.86C66.5811 8.996 66.8011 9.064 67.1051 9.064C67.5371 9.064 67.9051 8.964 68.2091 8.764C68.5211 8.564 68.8611 8.26 69.2291 7.852H69.6371C68.7491 9.332 67.6491 10.072 66.3371 10.072ZM70.9786 10.048C70.3866 10.048 69.9186 9.896 69.5746 9.592C69.2306 9.288 69.0586 8.808 69.0586 8.152C69.0586 7.608 69.1706 7.004 69.3946 6.34C69.6186 5.676 69.9786 5.104 70.4746 4.624C70.9706 4.136 71.5946 3.892 72.3466 3.892C73.3706 3.892 73.8826 4.532 73.8826 5.812V5.824C73.9066 5.832 73.9506 5.836 74.0146 5.836C74.2786 5.836 74.5826 5.768 74.9266 5.632C75.2706 5.488 75.5826 5.316 75.8626 5.116L75.9706 5.44C75.7386 5.688 75.4346 5.9 75.0586 6.076C74.6906 6.244 74.2866 6.364 73.8466 6.436C73.7826 7.164 73.6186 7.8 73.3546 8.344C73.0906 8.888 72.7506 9.308 72.3346 9.604C71.9186 9.9 71.4666 10.048 70.9786 10.048ZM71.4586 8.968C71.6506 8.968 71.8426 8.86 72.0346 8.644C72.2266 8.42 72.3946 8.12 72.5386 7.744C72.6826 7.36 72.7866 6.936 72.8506 6.472C72.6346 6.424 72.5266 6.256 72.5266 5.968C72.5266 5.64 72.6506 5.424 72.8986 5.32C72.8826 5.056 72.8426 4.876 72.7786 4.78C72.7146 4.676 72.6026 4.624 72.4426 4.624C72.1786 4.624 71.9226 4.816 71.6746 5.2C71.4266 5.584 71.2266 6.044 71.0746 6.58C70.9226 7.116 70.8466 7.588 70.8466 7.996C70.8466 8.38 70.8906 8.64 70.9786 8.776C71.0666 8.904 71.2266 8.968 71.4586 8.968ZM75.688 10.072C75.304 10.072 74.992 9.952 74.752 9.712C74.52 9.472 74.404 9.112 74.404 8.632C74.404 8.432 74.436 8.172 74.5 7.852L75.316 4H77.044L76.18 8.08C76.156 8.176 76.144 8.276 76.144 8.38C76.144 8.732 76.264 8.908 76.504 8.908C76.728 8.908 76.92 8.816 77.08 8.632C77.24 8.44 77.368 8.18 77.464 7.852L78.28 4H80.008L79.144 8.08C79.104 8.28 79.084 8.424 79.084 8.512C79.084 8.776 79.22 8.908 79.492 8.908C79.86 8.908 80.2 8.676 80.512 8.212C80.832 7.748 81.088 7.196 81.28 6.556C81.472 5.916 81.568 5.364 81.568 4.9C81.552 4.94 81.5 4.972 81.412 4.996C81.324 5.012 81.248 5.02 81.184 5.02C81.048 5.02 80.94 4.956 80.86 4.828C80.788 4.7 80.752 4.56 80.752 4.408C80.752 4.216 80.812 4.06 80.932 3.94C81.06 3.82 81.248 3.76 81.496 3.76C81.76 3.76 81.952 3.86 82.072 4.06C82.192 4.252 82.252 4.5 82.252 4.804C82.252 5.524 82.128 6.296 81.88 7.12C81.632 7.936 81.252 8.632 80.74 9.208C80.228 9.784 79.592 10.072 78.832 10.072C78.44 10.072 78.12 9.988 77.872 9.82C77.624 9.652 77.464 9.4 77.392 9.064C76.944 9.736 76.376 10.072 75.688 10.072ZM86.4032 10.072C86.0192 10.072 85.6952 10 85.4312 9.856C85.1672 9.704 84.9712 9.512 84.8432 9.28C84.7152 9.04 84.6512 8.792 84.6512 8.536C84.6512 8.272 84.7152 8.044 84.8432 7.852C84.9632 7.652 85.1112 7.508 85.2872 7.42C85.5992 6.86 85.8712 6.296 86.1032 5.728C86.3352 5.152 86.5552 4.532 86.7632 3.868L88.5392 3.628C88.5792 4.652 88.6472 5.76 88.7432 6.952C88.7832 7.432 88.8032 7.78 88.8032 7.996C88.8032 8.18 88.7872 8.332 88.7552 8.452C89.1312 8.236 89.4192 8.036 89.6192 7.852H90.1232C89.6112 8.444 88.9992 8.944 88.2872 9.352C88.0552 9.6 87.7672 9.784 87.4232 9.904C87.0872 10.016 86.7472 10.072 86.4032 10.072ZM86.0192 9.124C86.3152 9.124 86.5632 9.036 86.7632 8.86C86.9632 8.684 87.0632 8.4 87.0632 8.008C87.0632 7.768 87.0392 7.432 86.9912 7C86.9112 6.088 86.8592 5.476 86.8352 5.164C86.6432 5.796 86.3192 6.552 85.8632 7.432C86.0472 7.528 86.1392 7.668 86.1392 7.852C86.1392 8.004 86.0872 8.14 85.9832 8.26C85.8872 8.38 85.7632 8.44 85.6112 8.44C85.4432 8.44 85.3352 8.388 85.2872 8.284C85.2872 8.572 85.3432 8.784 85.4552 8.92C85.5752 9.056 85.7632 9.124 86.0192 9.124ZM91.0572 10.072C90.6012 10.072 90.2212 9.916 89.9172 9.604C89.6132 9.292 89.4612 8.804 89.4612 8.14C89.4612 7.548 89.5772 6.928 89.8092 6.28C90.0492 5.624 90.4012 5.072 90.8652 4.624C91.3372 4.168 91.8972 3.94 92.5452 3.94C92.8732 3.94 93.1172 3.996 93.2772 4.108C93.4372 4.22 93.5172 4.368 93.5172 4.552V4.636L93.6492 4H95.3772L94.5132 8.08C94.4812 8.2 94.4652 8.328 94.4652 8.464C94.4652 8.808 94.6292 8.98 94.9572 8.98C95.1812 8.98 95.3732 8.876 95.5332 8.668C95.7012 8.46 95.8332 8.188 95.9292 7.852H96.4332C96.1372 8.716 95.7692 9.304 95.3292 9.616C94.8972 9.92 94.4612 10.072 94.0212 10.072C93.6852 10.072 93.4132 9.98 93.2052 9.796C93.0052 9.604 92.8852 9.328 92.8452 8.968C92.6132 9.296 92.3532 9.564 92.0652 9.772C91.7852 9.972 91.4492 10.072 91.0572 10.072ZM91.8372 8.908C92.0372 8.908 92.2332 8.816 92.4252 8.632C92.6252 8.44 92.7612 8.18 92.8332 7.852L93.4092 5.14C93.4092 5.036 93.3692 4.936 93.2892 4.84C93.2092 4.736 93.0852 4.684 92.9172 4.684C92.5972 4.684 92.3092 4.872 92.0532 5.248C91.7972 5.616 91.5972 6.064 91.4532 6.592C91.3092 7.112 91.2372 7.572 91.2372 7.972C91.2372 8.372 91.2932 8.628 91.4052 8.74C91.5252 8.852 91.6692 8.908 91.8372 8.908ZM97.8056 13C97.4296 13 97.0976 12.876 96.8096 12.628C96.5296 12.388 96.3896 12.08 96.3896 11.704C96.3896 11.352 96.4776 11.064 96.6536 10.84C96.8296 10.616 97.0576 10.44 97.3376 10.312C97.6176 10.184 97.9936 10.048 98.4656 9.904L98.5856 9.376C98.1776 9.84 97.6896 10.072 97.1216 10.072C96.7376 10.072 96.4256 9.952 96.1856 9.712C95.9536 9.472 95.8376 9.112 95.8376 8.632C95.8376 8.432 95.8696 8.172 95.9336 7.852L96.7496 4H98.4776L97.6136 8.08C97.5896 8.176 97.5776 8.276 97.5776 8.38C97.5776 8.732 97.6976 8.908 97.9376 8.908C98.1616 8.908 98.3536 8.816 98.5136 8.632C98.6736 8.44 98.8016 8.18 98.8976 7.852L99.7136 4H101.454L99.9896 10.96C99.8296 11.728 99.5456 12.26 99.1376 12.556C98.7376 12.852 98.2936 13 97.8056 13ZM97.5296 11.932C97.6736 11.932 97.8096 11.856 97.9376 11.704C98.0656 11.56 98.1656 11.324 98.2376 10.996L98.3816 10.288C97.9576 10.432 97.6296 10.6 97.3976 10.792C97.1656 10.984 97.0496 11.232 97.0496 11.536C97.0496 11.632 97.0976 11.72 97.1936 11.8C97.2896 11.888 97.4016 11.932 97.5296 11.932ZM102.713 7.216C102.713 6.832 102.769 6.488 102.881 6.184C103.001 5.872 103.141 5.604 103.301 5.38C103.469 5.156 103.685 4.896 103.949 4.6C104.293 4.216 104.549 3.88 104.717 3.592C104.893 3.296 104.981 2.952 104.981 2.56C104.981 2.216 104.913 1.948 104.777 1.756C104.641 1.564 104.445 1.468 104.189 1.468C103.925 1.468 103.701 1.564 103.517 1.756C103.341 1.94 103.253 2.172 103.253 2.452C103.253 2.66 103.305 2.852 103.409 3.028C103.513 3.196 103.653 3.32 103.829 3.4V3.448C103.685 3.576 103.533 3.676 103.373 3.748C103.221 3.82 103.073 3.856 102.929 3.856C102.673 3.856 102.461 3.764 102.293 3.58C102.133 3.388 102.053 3.144 102.053 2.848C102.053 2.472 102.161 2.132 102.377 1.828C102.601 1.524 102.901 1.284 103.277 1.108C103.653 0.932 104.073 0.844 104.537 0.844C105.185 0.844 105.697 0.992 106.073 1.288C106.449 1.584 106.637 1.988 106.637 2.5C106.637 2.812 106.569 3.1 106.433 3.364C106.297 3.62 106.125 3.848 105.917 4.048C105.717 4.248 105.449 4.484 105.113 4.756C104.753 5.06 104.469 5.316 104.261 5.524C104.053 5.732 103.873 5.98 103.721 6.268C103.577 6.548 103.505 6.864 103.505 7.216H102.713ZM102.965 10C102.709 10 102.485 9.908 102.293 9.724C102.101 9.532 102.005 9.304 102.005 9.04C102.005 8.776 102.097 8.552 102.281 8.368C102.473 8.184 102.701 8.092 102.965 8.092C103.229 8.092 103.453 8.184 103.637 8.368C103.829 8.552 103.925 8.776 103.925 9.04C103.925 9.304 103.829 9.532 103.637 9.724C103.453 9.908 103.229 10 102.965 10Z" fill="white"/>
</g>
<defs>
<filter id="filter0_d_12_3" x="0.0719986" y="0.844" width="110.565" height="20.156" filterUnits="userSpaceOnUse" color-interpolation-filters="sRGB">
<feFlood flood-opacity="0" result="BackgroundImageFix"/>
<feColorMatrix in="SourceAlpha" type="matrix" values="0 0 0 0 0 0 0 0 0 0 0 0 0 0 0 0 0 0 127 0" result="hardAlpha"/>
<feOffset dy="4"/>
<feGaussianBlur stdDeviation="2"/>
<feComposite in2="hardAlpha" operator="out"/>
<feColorMatrix type="matrix" values="0 0 0 0 0 0 0 0 0 0 0 0 0 0 0 0 0 0 0.25 0"/>
<feBlend mode="normal" in2="BackgroundImageFix" result="effect1_dropShadow_12_3"/>
<feBlend mode="normal" in="SourceGraphic" in2="effect1_dropShadow_12_3" result="shape"/>
</filter>
</defs>
</svg>
